# xmcd
#
# Track frame offsets: 
#        150
#        10441
#        34339
#        60131
#        84727
#        108719
#        132007
#        149385
#        167009
#        181216
#        204852
#        226218
#
# Disc length: 3231 seconds
#
# Revision: 0
# Processed by: cddbd v1.5.2PL0 Copyright (c) Steve Scherf et al.
# Submitted via: ExactAudioCopy v1.0b3
#
DISCID=990c9d0c
DTITLE=John Cale - Music For A New Society [CD 2 - M:FANS)
DYEAR=2016
DGENRE=Rock
TTITLE0=Prelude
TTITLE1=If You Were Still Around
TTITLE2=Taking Your Life In Your Hands
TTITLE3=Thoughtless Kind
TTITLE4=Sanctus (Sanities Mix)
TTITLE5=Broken Bird
TTITLE6=Chinese Envoy
TTITLE7=Changes Made
TTITLE8=Library Of Force
TTITLE9=Close Watch
TTITLE10=If You Were Still Around (Choir Reprise)
TTITLE11=Back To The End
EXTD=
EXTT0=
EXTT1=
EXTT2=
EXTT3=
EXTT4=
EXTT5=
EXTT6=
EXTT7=
EXTT8=
EXTT9=
EXTT10=
EXTT11=
PLAYORDER=
